# xmcd CD database file
#
# Track frame offsets:
#	150
#	21976
#	34612
#	49368
#	63340
#	79230
#	92120
#	108077
#	120321
#	133745
#	149999
#	167942
#
# Disc length: 2391 seconds
#
# Revision: 0
# Processed by: cddbd v1.5.2PL0 Copyright (c) Steve Scherf et al.
# Submitted via: CDex 1.51
#
DISCID=ab09550c
DTITLE=Big Sandy and his Fly Rite Boys - What A Dream It's Been
DYEAR=2013
DGENRE=Country
TTITLE0=Baby Baby Me
TTITLE1=This Ain't A Good Time
TTITLE2=Missouri Gal
TTITLE3=Don't Desert Me
TTITLE4=Nothing To Lose
TTITLE5=Glad When I'm Gone
TTITLE6=Parts Unknown
TTITLE7=(You Mean) Too Much to Me
TTITLE8=I Know I've Loved You Before
TTITLE9=Three Years Blind
TTITLE10=If I Knew Now (What I Knew Then)
TTITLE11=What a Dream It's Been
EXTD=YEAR: 2013
EXTT0=
EXTT1=
EXTT2=
EXTT3=
EXTT4=
EXTT5=
EXTT6=
EXTT7=
EXTT8=
EXTT9=
EXTT10=
EXTT11=
PLAYORDER=
